# xmcd CD database file
#
# Track frame offsets:
#	150
#	17827
#	34277
#	46032
#	58925
#	76397
#	95460
#	107622
#	121577
#	134512
#	146337
#	157127
#	171797
#	184772
#	197612
#	211347
#	220355
#	231565
#
# Disc length: 3238 seconds
#
# Revision: 0
# Processed by: cddbd v1.5.1PL0 Copyright (c) Steve Scherf et al.
# Submitted via: CDex 1.50
#
DISCID=020ca412
DTITLE=Ray Charles - Ray Charles
DYEAR=1992
DGENRE=Blues
TTITLE0=What'd I Say
TTITLE1=Georgia on my mind
TTITLE2=Tell me Baby
TTITLE3=Don't put all your dreams in one basket
TTITLE4=Ruby
TTITLE5=I can't stop loving you
TTITLE6=Honey, honey
TTITLE7=Kiss me Baby
TTITLE8=Unchain my heart
TTITLE9=If I give you my love
TTITLE10=Hey now
TTITLE11=Born to loose
TTITLE12=Baby won't you please come home
TTITLE13=Snows in fallin'
TTITLE14=Someday
TTITLE15=In the road Jack
TTITLE16=She's on the ball
TTITLE17=How long
EXTD=YEAR: 1992
EXTT0=
EXTT1=
EXTT2=
EXTT3=
EXTT4=
EXTT5=
EXTT6=
EXTT7=
EXTT8=
EXTT9=
EXTT10=
EXTT11=
EXTT12=
EXTT13=
EXTT14=
EXTT15=
EXTT16=
EXTT17=
PLAYORDER=
